<?xml version="1.0" encoding="UTF-8"?> <svg xmlns="http://www.w3.org/2000/svg" height="512pt" viewBox="0 -17 512 511" width="512pt"> <path d="m358.601562.5h-203.699218c-23.597656 0-42.792969 19.195312-42.792969 42.792969v392.328125c0 23.597656 19.195313 42.792968 42.792969 42.792968h203.699218c23.59375 0 42.789063-19.195312 42.789063-42.792968v-392.328125c0-23.597657-19.195313-42.792969-42.789063-42.792969zm12.761719 435.121094c0 7.039062-5.726562 12.765625-12.761719 12.765625h-203.699218c-7.039063 0-12.761719-5.726563-12.761719-12.765625v-392.328125c0-7.039063 5.722656-12.761719 12.761719-12.761719h203.699218c7.035157 0 12.761719 5.722656 12.761719 12.761719zm0 0"></path> <path d="m330.625 56.253906h-147.746094c-8.292968 0-15.015625 6.722656-15.015625 15.015625v169.117188c0 8.292969 6.722657 15.015625 15.015625 15.015625h147.746094c8.289062 0 15.011719-6.722656 15.011719-15.015625v-169.117188c0-8.292969-6.722657-15.015625-15.011719-15.015625zm-15.015625 169.117188h-117.71875v-139.089844h117.71875zm0 0"></path> <path d="m194.8125 281.125h-11.933594c-8.292968 0-15.015625 6.722656-15.015625 15.015625s6.722657 15.015625 15.015625 15.015625h11.933594c8.289062 0 15.011719-6.722656 15.011719-15.015625s-6.722657-15.015625-15.011719-15.015625zm0 0"></path> <path d="m194.8125 336.878906h-11.933594c-8.292968 0-15.015625 6.722656-15.015625 15.015625 0 8.289063 6.722657 15.011719 15.015625 15.011719h11.933594c8.289062 0 15.011719-6.722656 15.011719-15.011719 0-8.292969-6.722657-15.015625-15.011719-15.015625zm0 0"></path> <path d="m194.8125 392.632812h-11.933594c-8.292968 0-15.015625 6.71875-15.015625 15.011719s6.722657 15.015625 15.015625 15.015625h11.933594c8.289062 0 15.011719-6.722656 15.011719-15.015625s-6.722657-15.011719-15.011719-15.011719zm0 0"></path> <path d="m262.644531 281.125h-11.933593c-8.292969 0-15.015626 6.722656-15.015626 15.015625s6.722657 15.015625 15.015626 15.015625h11.933593c8.292969 0 15.015625-6.722656 15.015625-15.015625s-6.722656-15.015625-15.015625-15.015625zm0 0"></path> <path d="m262.644531 336.878906h-11.933593c-8.292969 0-15.015626 6.722656-15.015626 15.015625 0 8.289063 6.722657 15.011719 15.015626 15.011719h11.933593c8.292969 0 15.015625-6.722656 15.015625-15.011719 0-8.292969-6.722656-15.015625-15.015625-15.015625zm0 0"></path> <path d="m262.644531 392.632812h-11.933593c-8.292969 0-15.015626 6.71875-15.015626 15.011719s6.722657 15.015625 15.015626 15.015625h11.933593c8.292969 0 15.015625-6.722656 15.015625-15.015625s-6.722656-15.011719-15.015625-15.011719zm0 0"></path> <path d="m330.480469 281.125h-11.933594c-8.292969 0-15.015625 6.722656-15.015625 15.015625s6.722656 15.015625 15.015625 15.015625h11.933594c8.289062 0 15.011719-6.722656 15.011719-15.015625s-6.722657-15.015625-15.011719-15.015625zm0 0"></path> <path d="m330.480469 336.878906h-11.933594c-8.292969 0-15.015625 6.722656-15.015625 15.015625 0 8.289063 6.722656 15.011719 15.015625 15.011719h11.933594c8.289062 0 15.011719-6.722656 15.011719-15.011719 0-8.292969-6.722657-15.015625-15.011719-15.015625zm0 0"></path> <path d="m330.480469 392.632812h-11.933594c-8.292969 0-15.015625 6.71875-15.015625 15.011719s6.722656 15.015625 15.015625 15.015625h11.933594c8.289062 0 15.011719-6.722656 15.011719-15.015625s-6.722657-15.011719-15.011719-15.011719zm0 0"></path> <path d="m89.59375 172.125c-6.414062-5.253906-15.875-4.316406-21.128906 2.101562-11.199219 13.664063-17.367188 30.925782-17.367188 48.59375 0 16.515626 5.46875 32.882813 15.394532 46.082032 2.953124 3.925781 7.453124 5.992187 12.011718 5.992187 3.144532 0 6.3125-.984375 9.015625-3.015625 6.625-4.984375 7.957031-14.398437 2.976563-21.027344-6.039063-8.027343-9.367188-17.984374-9.367188-28.035156 0-10.746094 3.753906-21.246094 10.566406-29.558594 5.253907-6.414062 4.3125-15.875-2.101562-21.132812zm0 0"></path> <path d="m30.03125 222.820312c0-20.785156 7.472656-40.898437 21.046875-56.636718 5.414063-6.28125 4.714844-15.761719-1.566406-21.175782-6.277344-5.414062-15.757813-4.71875-21.175781 1.5625-18.273438 21.1875-28.335938 48.269532-28.335938 76.25 0 26.742188 9.289062 52.898438 26.160156 73.648438 2.96875 3.648438 7.296875 5.542969 11.660156 5.542969 3.328126 0 6.675782-1.101563 9.460938-3.363281 6.433594-5.230469 7.410156-14.6875 2.179688-21.121094-12.53125-15.414063-19.429688-34.84375-19.429688-54.707032zm0 0"></path> <path d="m443.535156 174.226562c-5.253906-6.414062-14.710937-7.355468-21.128906-2.101562-6.414062 5.257812-7.355469 14.71875-2.097656 21.132812 6.8125 8.3125 10.5625 18.8125 10.5625 29.558594 0 10.050782-3.324219 20.007813-9.363282 28.035156-4.984374 6.628907-3.652343 16.042969 2.976563 21.027344 2.703125 2.03125 5.871094 3.015625 9.011719 3.015625 4.558594 0 9.0625-2.066406 12.011718-5.992187 9.929688-13.199219 15.394532-29.566406 15.394532-46.082032 0-17.667968-6.167969-34.929687-17.367188-48.59375zm0 0"></path> <path d="m483.664062 146.570312c-5.417968-6.28125-14.898437-6.980468-21.175781-1.5625-6.28125 5.414063-6.984375 14.894532-1.566406 21.175782 13.574219 15.738281 21.046875 35.851562 21.046875 56.636718 0 19.863282-6.898438 39.292969-19.429688 54.707032-5.230468 6.433594-4.253906 15.890625 2.179688 21.121094 2.785156 2.261718 6.132812 3.363281 9.460938 3.363281 4.363281 0 8.695312-1.894531 11.660156-5.542969 16.871094-20.753906 26.160156-46.90625 26.160156-73.648438 0-27.980468-10.0625-55.0625-28.335938-76.25zm0 0"></path> </svg> 